<mxfile host="Electron" modified="2024-01-03T00:34:47.441Z" agent="Mozilla/5.0 (Windows NT 10.0; Win64; x64) AppleWebKit/537.36 (KHTML, like Gecko) draw.io/22.1.16 Chrome/120.0.6099.109 Electron/28.1.0 Safari/537.36" etag="c8-32SSkXBqEOpo926CA" version="22.1.16" type="device">
  <diagram name="Page-1" id="NHH41xcpYk2hP8wkHoYM">
    <mxGraphModel dx="780" dy="460" grid="1" gridSize="10" guides="1" tooltips="1" connect="1" arrows="1" fold="1" page="1" pageScale="1" pageWidth="850" pageHeight="1100" math="0" shadow="0">
      <root>
        <mxCell id="0" />
        <mxCell id="1" parent="0" />
        <mxCell id="WxbGioUIRZpZ0vbg6T_8-3" style="edgeStyle=orthogonalEdgeStyle;rounded=0;orthogonalLoop=1;jettySize=auto;html=1;exitX=0.5;exitY=1;exitDx=0;exitDy=0;entryX=0.5;entryY=0;entryDx=0;entryDy=0;" edge="1" parent="1" source="WxbGioUIRZpZ0vbg6T_8-1" target="WxbGioUIRZpZ0vbg6T_8-2">
          <mxGeometry relative="1" as="geometry" />
        </mxCell>
        <mxCell id="WxbGioUIRZpZ0vbg6T_8-1" value="MIF" style="rounded=0;whiteSpace=wrap;html=1;" vertex="1" parent="1">
          <mxGeometry x="120" y="40" width="120" height="60" as="geometry" />
        </mxCell>
        <mxCell id="WxbGioUIRZpZ0vbg6T_8-5" style="edgeStyle=orthogonalEdgeStyle;rounded=0;orthogonalLoop=1;jettySize=auto;html=1;exitX=0.5;exitY=1;exitDx=0;exitDy=0;entryX=0.5;entryY=0;entryDx=0;entryDy=0;" edge="1" parent="1" source="WxbGioUIRZpZ0vbg6T_8-2" target="WxbGioUIRZpZ0vbg6T_8-4">
          <mxGeometry relative="1" as="geometry" />
        </mxCell>
        <mxCell id="WxbGioUIRZpZ0vbg6T_8-2" value="find all outreach attempts" style="rhombus;whiteSpace=wrap;html=1;" vertex="1" parent="1">
          <mxGeometry x="135" y="170" width="90" height="90" as="geometry" />
        </mxCell>
        <mxCell id="WxbGioUIRZpZ0vbg6T_8-4" value="A-D" style="rounded=0;whiteSpace=wrap;html=1;" vertex="1" parent="1">
          <mxGeometry x="120" y="320" width="120" height="60" as="geometry" />
        </mxCell>
        <mxCell id="WxbGioUIRZpZ0vbg6T_8-6" value="Separate line for each attempt" style="text;html=1;strokeColor=none;fillColor=none;align=center;verticalAlign=middle;whiteSpace=wrap;rounded=0;" vertex="1" parent="1">
          <mxGeometry x="200" y="260" width="60" height="30" as="geometry" />
        </mxCell>
        <mxCell id="WxbGioUIRZpZ0vbg6T_8-12" style="edgeStyle=orthogonalEdgeStyle;rounded=0;orthogonalLoop=1;jettySize=auto;html=1;exitX=0.5;exitY=1;exitDx=0;exitDy=0;entryX=0.5;entryY=0;entryDx=0;entryDy=0;" edge="1" parent="1" source="WxbGioUIRZpZ0vbg6T_8-7" target="WxbGioUIRZpZ0vbg6T_8-9">
          <mxGeometry relative="1" as="geometry" />
        </mxCell>
        <mxCell id="WxbGioUIRZpZ0vbg6T_8-7" value="Outreach&lt;br&gt;(E)" style="rounded=0;whiteSpace=wrap;html=1;" vertex="1" parent="1">
          <mxGeometry x="320" y="40" width="120" height="60" as="geometry" />
        </mxCell>
        <mxCell id="WxbGioUIRZpZ0vbg6T_8-13" style="edgeStyle=orthogonalEdgeStyle;rounded=0;orthogonalLoop=1;jettySize=auto;html=1;exitX=0.5;exitY=1;exitDx=0;exitDy=0;entryX=0.5;entryY=0;entryDx=0;entryDy=0;" edge="1" parent="1" source="WxbGioUIRZpZ0vbg6T_8-8" target="WxbGioUIRZpZ0vbg6T_8-11">
          <mxGeometry relative="1" as="geometry" />
        </mxCell>
        <mxCell id="WxbGioUIRZpZ0vbg6T_8-8" value="Outreach&lt;br&gt;(G)" style="rounded=0;whiteSpace=wrap;html=1;" vertex="1" parent="1">
          <mxGeometry x="510" y="40" width="120" height="60" as="geometry" />
        </mxCell>
        <mxCell id="WxbGioUIRZpZ0vbg6T_8-9" value="F" style="rounded=0;whiteSpace=wrap;html=1;" vertex="1" parent="1">
          <mxGeometry x="320" y="320" width="120" height="60" as="geometry" />
        </mxCell>
        <mxCell id="WxbGioUIRZpZ0vbg6T_8-11" value="H" style="rounded=0;whiteSpace=wrap;html=1;" vertex="1" parent="1">
          <mxGeometry x="510" y="320" width="120" height="60" as="geometry" />
        </mxCell>
        <mxCell id="WxbGioUIRZpZ0vbg6T_8-14" value="&lt;font style=&quot;font-size: 23px;&quot;&gt;E &amp;amp; G???&lt;/font&gt;" style="text;html=1;strokeColor=none;fillColor=none;align=center;verticalAlign=middle;whiteSpace=wrap;rounded=0;" vertex="1" parent="1">
          <mxGeometry x="290" y="410" width="60" height="30" as="geometry" />
        </mxCell>
      </root>
    </mxGraphModel>
  </diagram>
</mxfile>
